# xmcd CD database file
#
# Track frame offsets:
#	150
#	23052
#	43746
#	55968
#
# Disc length: 1061 seconds
#
# Revision: 0
# Processed by: cddbd v1.5.1PL2 Copyright (c) Steve Scherf et al.
# Submitted via: CDex 1.51
#
DISCID=2d042304
DTITLE=ULTRA BRAiN - GHOST BUSTERZ
DYEAR=2006
DGENRE=Techno
TTITLE0=GHOST BUSTERZ
TTITLE1=NINJA NIGHT SCHOOL
TTITLE2=DRIVE ME
TTITLE3=TRAIN IN VAIN
EXTD=YEAR: 2006
EXTT0=
EXTT1=
EXTT2=
EXTT3=
PLAYORDER=
